#Comment line ignore any data following # character 
#Hierarchical Translation and Rotation (.htr) file 
[Header]	
#Header keywords are followed by a single value 
FileType HTR		#Single word string
DataType HTRS		#Translation followed by rotation and scale data
FileVersion 1		#integer
NumSegments 84		#integer
NumFrames 2		#integer
DataFrameRate 30		#integer, data frame rate in this file
EulerRotationOrder ZYX
CalibrationUnits mm
RotationUnits Degrees
GlobalAxisofGravity Y
BoneLengthAxis Y
ScaleFactor 1.00
[SegmentNames&Hierarchy]
#CHILD	PARENT
MASTER GLOBAL
root MASTER
chest root
L_mid_tent01 root
R_mid_tent01 root
spine01 root
Bip01_Neck chest
L_humerus chest
R_humerus chest
weapon_bone chest
Bip01_Head Bip01_Neck
eye_left_bone Bip01_Head
eye_right_bone Bip01_Head
L_forearm L_humerus
L_front_hand L_forearm
L_weapon_bone L_forearm
L_front_hand01_01 L_front_hand
L_front_hand02_01 L_front_hand
L_front_hand03_01 L_front_hand
L_front_hand01_02 L_front_hand01_01
L_front_hand02_02 L_front_hand02_01
L_front_hand03_02 L_front_hand03_01
R_forearm R_humerus
R_front_hand R_forearm
R_weapon_bone R_forearm
R_front_hand01_01 R_front_hand
R_front_hand02_01 R_front_hand
R_front_hand03_01 R_front_hand
R_front_hand01_02 R_front_hand01_01
R_front_hand02_02 R_front_hand02_01
R_front_hand03_02 R_front_hand03_01
null_rope01_connect L_mid_tent01
Rope1_Seg01 null_rope01_connect
Rope1_Seg02 Rope1_Seg01
Rope1_Seg03 Rope1_Seg02
Rope1_Seg04 Rope1_Seg03
Rope1_Seg05 Rope1_Seg04
Rope1_Seg06 Rope1_Seg05
Rope1_Seg07 Rope1_Seg06
Rope1_Seg09 Rope1_Seg07
L_mid_hand01 Rope1_Seg09
L_mid_hand02 Rope1_Seg09
L_mid_hand03 Rope1_Seg09
null_rope02_connect R_mid_tent01
Rope2_Seg01 null_rope02_connect
Rope2_Seg02 Rope2_Seg01
Rope2_Seg03 Rope2_Seg02
Rope2_Seg04 Rope2_Seg03
Rope2_Seg05 Rope2_Seg04
Rope2_Seg06 Rope2_Seg05
Rope2_Seg07 Rope2_Seg06
Rope2_Seg09 Rope2_Seg07
R_mid_hand01 Rope2_Seg09
R_mid_hand02 Rope2_Seg09
R_mid_hand03 Rope2_Seg09
spine02 spine01
spine03 spine02
pelvis spine03
null_rope03_connect pelvis
null_rope04_connect pelvis
Rope3_Seg01 null_rope03_connect
Rope3_Seg02 Rope3_Seg01
Rope3_Seg03 Rope3_Seg02
Rope3_Seg04 Rope3_Seg03
Rope3_Seg05 Rope3_Seg04
Rope3_Seg06 Rope3_Seg05
Rope3_Seg07 Rope3_Seg06
Rope3_Seg08 Rope3_Seg07
Rope3_Seg09 Rope3_Seg08
R_rear_hand01 Rope3_Seg09
R_rear_hand02 Rope3_Seg09
R_rear_hand03 Rope3_Seg09
Rope4_Seg01 null_rope04_connect
Rope4_Seg02 Rope4_Seg01
Rope4_Seg03 Rope4_Seg02
Rope4_Seg04 Rope4_Seg03
Rope4_Seg05 Rope4_Seg04
Rope4_Seg06 Rope4_Seg05
Rope4_Seg07 Rope4_Seg06
Rope4_Seg08 Rope4_Seg07
Rope4_Seg09 Rope4_Seg08
L_rear_hand01 Rope4_Seg09
L_rear_hand02 Rope4_Seg09
L_rear_hand03 Rope4_Seg09
[BasePosition]
#SegmentName Tx, Ty, Tz, Rx, Ry, Rz, BoneLength
MASTER 0.000000 0.000000 0.000000 -90.000000 0.000000 0.000000 10.000000 
root 0.000000 0.000000 0.000000 0.000000 0.000000 0.000000 10.000000 
chest 0.000000 0.000000 0.000000 0.000000 0.000000 0.000000 10.000000 
L_mid_tent01 0.000000 0.000000 0.000000 0.000000 0.000000 0.000000 10.000000 
R_mid_tent01 0.000000 0.000000 0.000000 0.000000 0.000000 0.000000 10.000000 
spine01 0.000000 0.000000 0.000000 0.000000 0.000000 0.000000 10.000000 
Bip01_Neck 0.000000 0.000000 0.000000 0.000000 0.000000 0.000000 10.000000 
L_humerus 0.000000 0.000000 0.000000 0.000000 0.000000 0.000000 10.000000 
R_humerus 0.000000 0.000000 0.000000 0.000000 0.000000 0.000000 10.000000 
weapon_bone 0.000000 0.000000 0.000000 0.000000 0.000000 0.000000 10.000000 
Bip01_Head 0.000000 0.000000 0.000000 0.000000 0.000000 0.000000 10.000000 
eye_left_bone 0.000000 0.000000 0.000000 0.000000 0.000000 0.000000 10.000000 
eye_right_bone 0.000000 0.000000 0.000000 0.000000 0.000000 0.000000 10.000000 
L_forearm 0.000000 0.000000 0.000000 0.000000 0.000000 0.000000 10.000000 
L_front_hand 0.000000 0.000000 0.000000 0.000000 0.000000 0.000000 10.000000 
L_weapon_bone 0.000000 0.000000 0.000000 0.000000 0.000000 0.000000 10.000000 
L_front_hand01_01 0.000000 0.000000 0.000000 0.000000 0.000000 0.000000 10.000000 
L_front_hand02_01 0.000000 0.000000 0.000000 0.000000 0.000000 0.000000 10.000000 
L_front_hand03_01 0.000000 0.000000 0.000000 0.000000 0.000000 0.000000 10.000000 
L_front_hand01_02 0.000000 0.000000 0.000000 0.000000 0.000000 0.000000 10.000000 
L_front_hand02_02 0.000000 0.000000 0.000000 0.000000 0.000000 0.000000 10.000000 
L_front_hand03_02 0.000000 0.000000 0.000000 0.000000 0.000000 0.000000 10.000000 
R_forearm 0.000000 0.000000 0.000000 0.000000 0.000000 0.000000 10.000000 
R_front_hand 0.000000 0.000000 0.000000 0.000000 0.000000 0.000000 10.000000 
R_weapon_bone 0.000000 0.000000 0.000000 0.000000 0.000000 0.000000 10.000000 
R_front_hand01_01 0.000000 0.000000 0.000000 0.000000 0.000000 0.000000 10.000000 
R_front_hand02_01 0.000000 0.000000 0.000000 0.000000 0.000000 0.000000 10.000000 
R_front_hand03_01 0.000000 0.000000 0.000000 0.000000 0.000000 0.000000 10.000000 
R_front_hand01_02 0.000000 0.000000 0.000000 0.000000 0.000000 0.000000 10.000000 
R_front_hand02_02 0.000000 0.000000 0.000000 0.000000 0.000000 0.000000 10.000000 
R_front_hand03_02 0.000000 0.000000 0.000000 0.000000 0.000000 0.000000 10.000000 
null_rope01_connect 0.000000 0.000000 0.000000 0.000000 0.000000 0.000000 10.000000 
Rope1_Seg01 0.000000 0.000000 0.000000 0.000000 0.000000 0.000000 10.000000 
Rope1_Seg02 0.000000 0.000000 0.000000 0.000000 0.000000 0.000000 10.000000 
Rope1_Seg03 0.000000 0.000000 0.000000 0.000000 0.000000 0.000000 10.000000 
Rope1_Seg04 0.000000 0.000000 0.000000 0.000000 0.000000 0.000000 10.000000 
Rope1_Seg05 0.000000 0.000000 0.000000 0.000000 0.000000 0.000000 10.000000 
Rope1_Seg06 0.000000 0.000000 0.000000 0.000000 0.000000 0.000000 10.000000 
Rope1_Seg07 0.000000 0.000000 0.000000 0.000000 0.000000 0.000000 10.000000 
Rope1_Seg09 0.000000 0.000000 0.000000 0.000000 0.000000 0.000000 10.000000 
L_mid_hand01 0.000000 0.000000 0.000000 0.000000 0.000000 0.000000 10.000000 
L_mid_hand02 0.000000 0.000000 0.000000 0.000000 0.000000 0.000000 10.000000 
L_mid_hand03 0.000000 0.000000 0.000000 0.000000 0.000000 0.000000 10.000000 
null_rope02_connect 0.000000 0.000000 0.000000 0.000000 0.000000 0.000000 10.000000 
Rope2_Seg01 0.000000 0.000000 0.000000 0.000000 0.000000 0.000000 10.000000 
Rope2_Seg02 0.000000 0.000000 0.000000 0.000000 0.000000 0.000000 10.000000 
Rope2_Seg03 0.000000 0.000000 0.000000 0.000000 0.000000 0.000000 10.000000 
Rope2_Seg04 0.000000 0.000000 0.000000 0.000000 0.000000 0.000000 10.000000 
Rope2_Seg05 0.000000 0.000000 0.000000 0.000000 0.000000 0.000000 10.000000 
Rope2_Seg06 0.000000 0.000000 0.000000 0.000000 0.000000 0.000000 10.000000 
Rope2_Seg07 0.000000 0.000000 0.000000 0.000000 0.000000 0.000000 10.000000 
Rope2_Seg09 0.000000 0.000000 0.000000 0.000000 0.000000 0.000000 10.000000 
R_mid_hand01 0.000000 0.000000 0.000000 0.000000 0.000000 0.000000 10.000000 
R_mid_hand02 0.000000 0.000000 0.000000 0.000000 0.000000 0.000000 10.000000 
R_mid_hand03 0.000000 0.000000 0.000000 0.000000 0.000000 0.000000 10.000000 
spine02 0.000000 0.000000 0.000000 0.000000 0.000000 0.000000 10.000000 
spine03 0.000000 0.000000 0.000000 0.000000 0.000000 0.000000 10.000000 
pelvis 0.000000 0.000000 0.000000 0.000000 0.000000 0.000000 10.000000 
null_rope03_connect 0.000000 0.000000 0.000000 0.000000 0.000000 0.000000 10.000000 
null_rope04_connect 0.000000 0.000000 0.000000 0.000000 0.000000 0.000000 10.000000 
Rope3_Seg01 0.000000 0.000000 0.000000 0.000000 0.000000 0.000000 10.000000 
Rope3_Seg02 0.000000 0.000000 0.000000 0.000000 0.000000 0.000000 10.000000 
Rope3_Seg03 0.000000 0.000000 0.000000 0.000000 0.000000 0.000000 10.000000 
Rope3_Seg04 0.000000 0.000000 0.000000 0.000000 0.000000 0.000000 10.000000 
Rope3_Seg05 0.000000 0.000000 0.000000 0.000000 0.000000 0.000000 10.000000 
Rope3_Seg06 0.000000 0.000000 0.000000 0.000000 0.000000 0.000000 10.000000 
Rope3_Seg07 0.000000 0.000000 0.000000 0.000000 0.000000 0.000000 10.000000 
Rope3_Seg08 0.000000 0.000000 0.000000 0.000000 0.000000 0.000000 10.000000 
Rope3_Seg09 0.000000 0.000000 0.000000 0.000000 0.000000 0.000000 10.000000 
R_rear_hand01 0.000000 0.000000 0.000000 0.000000 0.000000 0.000000 10.000000 
R_rear_hand02 0.000000 0.000000 0.000000 0.000000 0.000000 0.000000 10.000000 
R_rear_hand03 0.000000 0.000000 0.000000 0.000000 0.000000 0.000000 10.000000 
Rope4_Seg01 0.000000 0.000000 0.000000 0.000000 0.000000 0.000000 10.000000 
Rope4_Seg02 0.000000 0.000000 0.000000 0.000000 0.000000 0.000000 10.000000 
Rope4_Seg03 0.000000 0.000000 0.000000 0.000000 0.000000 0.000000 10.000000 
Rope4_Seg04 0.000000 0.000000 0.000000 0.000000 0.000000 0.000000 10.000000 
Rope4_Seg05 0.000000 0.000000 0.000000 0.000000 0.000000 0.000000 10.000000 
Rope4_Seg06 0.000000 0.000000 0.000000 0.000000 0.000000 0.000000 10.000000 
Rope4_Seg07 0.000000 0.000000 0.000000 0.000000 0.000000 0.000000 10.000000 
Rope4_Seg08 0.000000 0.000000 0.000000 0.000000 0.000000 0.000000 10.000000 
Rope4_Seg09 0.000000 0.000000 0.000000 0.000000 0.000000 0.000000 10.000000 
L_rear_hand01 0.000000 0.000000 0.000000 0.000000 0.000000 0.000000 10.000000 
L_rear_hand02 0.000000 0.000000 0.000000 0.000000 0.000000 0.000000 10.000000 
L_rear_hand03 0.000000 0.000000 0.000000 0.000000 0.000000 0.000000 10.000000 
#Beginning of Data. Separated by tabs
#Fr	Tx	Ty	Tz	Rx	Ry	Rz	SF
[MASTER]
30 0.000000 0.000000 0.000000 0.001660 0.001660 0.001660 0.000000
31 0.000000 0.000000 0.000000 0.001660 0.001660 0.001660 0.000000
[root]
30 -19.313751 10.353844 1447.492920 -91.728889 -11.584497 -89.471619 1447.658813
31 -16.502304 9.364140 1448.317383 -91.728912 -11.584503 -89.471642 1448.441650
[chest]
30 -84.512650 -34.090519 0.000000 -2.170494 -0.006436 168.239609 91.129311
31 -84.512650 -34.090519 0.000000 -2.170494 -0.006436 168.239609 91.129311
[L_mid_tent01]
30 27.299511 22.177458 -249.918259 -20.661392 12.026043 12.983022 252.381134
31 27.299511 22.177458 -249.918259 -20.661398 12.026046 12.983024 252.381134
[R_mid_tent01]
30 23.228794 24.509907 226.238495 -165.192200 -17.956036 24.056787 228.744751
31 23.228794 24.509907 226.238495 -165.192215 -17.956036 24.056789 228.744751
[spine01]
30 -0.361383 -0.195265 0.000000 -0.000001 -0.000007 22.052340 0.410763
31 -0.361383 -0.195265 0.000000 -0.000001 -0.000007 22.052340 0.410763
[Bip01_Neck]
30 165.484543 71.581718 0.000119 175.896118 1.177290 24.871183 180.302734
31 165.484543 71.581718 0.000119 175.896118 1.177290 24.871187 180.302734
[L_humerus]
30 -13.983130 -135.272980 -120.471481 -5.480129 68.873367 84.573456 181.680161
31 -13.983130 -135.272980 -120.471481 -5.480137 68.873428 84.573517 181.680161
[R_humerus]
30 -13.983309 -135.273102 125.287651 27.897165 -69.888802 67.752319 184.909012
31 -13.983309 -135.273102 125.287651 27.897175 -69.888847 67.752357 184.909012
[weapon_bone]
30 235.964890 -300.705902 0.000000 0.000000 -89.951546 -128.212341 382.234833
31 235.964890 -300.705902 0.000000 0.000000 -89.951546 -128.212341 382.234833
[Bip01_Head]
30 193.865707 99.525291 7.890739 1.727521 4.534425 -43.429157 218.062973
31 193.865707 99.525291 7.890739 1.727521 4.534426 -43.429165 218.062973
[eye_left_bone]
30 -24.626970 125.451866 -64.772606 0.000000 -90.000000 -99.840431 143.318359
31 -24.626970 125.451866 -64.772606 0.000000 -90.000000 -99.840431 143.318359
[eye_right_bone]
30 -24.626970 125.451866 64.327362 0.000000 -89.965736 80.156380 143.117676
31 -24.626970 125.451866 64.327362 0.000000 -90.000000 80.156387 143.117676
[L_forearm]
30 322.776093 0.000000 -0.000119 0.000396 -0.002314 -109.419975 322.776093
31 322.776093 0.000000 -0.000119 0.000396 -0.002314 -109.419975 322.776093
[L_front_hand]
30 241.149185 -0.042021 -3.300071 -179.659958 -2.242151 -0.019832 241.171753
31 241.149185 -0.042021 -3.300071 -179.659958 -2.242151 -0.019832 241.171753
[L_weapon_bone]
30 156.183838 0.000000 0.000000 0.000014 0.000007 0.000001 156.183838
31 156.183838 0.000000 0.000000 0.000014 0.000007 0.000001 156.183838
[L_front_hand01_01]
30 86.095154 20.947098 -0.655860 -0.366594 -0.477154 75.385574 88.609184
31 86.095154 20.947098 -0.655860 -0.366594 -0.477154 75.385582 88.609184
[L_front_hand02_01]
30 86.935165 -11.437475 24.513514 154.399796 -59.883835 -61.369587 91.046425
31 86.935165 -11.437475 24.513514 154.399826 -59.883846 -61.369614 91.046425
[L_front_hand03_01]
30 86.637497 -14.123976 -20.424902 -153.913849 58.118122 -62.702866 90.126129
31 86.637497 -14.123976 -20.424902 -153.913864 58.118141 -62.702885 90.126129
[L_front_hand01_02]
30 71.020905 -0.000179 0.000030 0.000334 -0.002323 -106.379684 71.020905
31 71.020905 -0.000179 0.000030 0.000334 -0.002323 -106.379700 71.020905
[L_front_hand02_02]
30 71.020927 -0.000119 0.000060 0.000334 -0.002323 -106.379684 71.020927
31 71.020927 -0.000119 0.000060 0.000334 -0.002323 -106.379700 71.020927
[L_front_hand03_02]
30 71.020905 -0.000060 0.000060 0.000334 -0.002323 -106.379684 71.020905
31 71.020905 -0.000060 0.000060 0.000334 -0.002323 -106.379700 71.020905
[R_forearm]
30 322.776428 -0.000060 0.000030 0.202103 0.065158 -108.062805 322.776428
31 322.776428 -0.000060 0.000030 0.202103 0.065158 -108.062820 322.776428
[R_front_hand]
30 238.847015 -0.006795 2.210259 -0.270529 1.703932 2.322530 238.857239
31 238.847015 -0.006795 2.210259 -0.270529 1.703932 2.322531 238.857239
[R_weapon_bone]
30 155.664093 0.002503 -0.000030 0.003487 0.001180 -90.988930 155.664078
31 155.664093 0.002503 -0.000030 0.003487 0.001180 -90.988930 155.664078
[R_front_hand01_01]
30 87.624611 14.231146 22.918642 -154.633499 -59.950619 61.746044 91.683487
31 87.624611 14.231146 22.918642 -154.633499 -59.950634 61.746063 91.683487
[R_front_hand02_01]
30 89.356956 14.367283 -19.491137 154.602661 58.302849 63.744389 92.579636
31 89.356956 14.367283 -19.491137 154.602676 58.302864 63.744400 92.579636
[R_front_hand03_01]
30 87.286232 -22.307278 -0.143439 0.162155 -0.423168 -75.767921 90.091743
31 87.286232 -22.307278 -0.143439 0.162155 -0.423168 -75.767921 90.091743
[R_front_hand01_02]
30 71.020905 0.000060 0.000119 0.002323 -0.000334 106.381714 71.020905
31 71.020905 0.000060 0.000119 0.002323 -0.000334 106.381729 71.020905
[R_front_hand02_02]
30 71.020844 -0.000030 -0.000119 0.002323 -0.000334 106.381714 71.020836
31 71.020844 -0.000030 -0.000119 0.002323 -0.000334 106.381729 71.020836
[R_front_hand03_02]
30 71.020905 0.000000 0.000030 0.002323 -0.000334 106.381714 71.020905
31 71.020905 0.000000 0.000030 0.002323 -0.000334 106.381729 71.020905
[null_rope01_connect]
30 328.732483 0.000000 -0.000238 -154.483337 -64.791321 -118.914307 328.732483
31 328.732483 0.000000 -0.000238 -154.483353 -64.791336 -118.914322 328.732483
[Rope1_Seg01]
30 -0.000038 -0.000114 0.000114 45.091434 2.452385 -118.764626 0.000166
31 -0.000038 -0.000114 0.000114 43.680595 1.860331 -118.135170 0.000166
[Rope1_Seg02]
30 139.999863 -0.000179 0.000000 -4.627757 2.586742 -0.340521 139.999863
31 139.999863 -0.000179 0.000000 -5.477603 2.962784 -0.209442 139.999863
[Rope1_Seg03]
30 139.999924 0.000060 -0.000060 -8.371879 3.294661 0.539345 139.999924
31 139.999924 0.000060 -0.000060 -9.717098 3.679283 0.980019 139.999924
[Rope1_Seg04]
30 139.999924 -0.000060 -0.000119 -9.601232 3.297589 0.767344 139.999924
31 139.999924 -0.000060 -0.000119 -10.368776 3.508297 1.148943 139.999924
[Rope1_Seg05]
30 139.999832 0.000119 -0.000060 13.136855 -0.979785 -4.194432 139.999832
31 139.999832 0.000119 -0.000060 13.738668 -0.358351 -5.079385 139.999832
[Rope1_Seg06]
30 139.999954 0.000119 -0.000060 9.386609 -1.319802 -2.161344 139.999954
31 139.999954 0.000119 -0.000060 10.654817 -1.103006 -2.699347 139.999954
[Rope1_Seg07]
30 139.999985 0.000060 0.000000 3.913929 -0.557392 -0.873509 139.999985
31 139.999985 0.000060 0.000000 4.701699 -0.517143 -1.108562 139.999985
[Rope1_Seg09]
30 121.602913 0.000119 -0.000089 -89.793175 -1.359789 0.847147 121.602913
31 121.602913 0.000119 -0.000089 -89.793175 -1.359789 0.847147 121.602913
[L_mid_hand01]
30 103.859421 1.038730 8.195221 106.855484 -31.239275 -9.461397 104.187431
31 103.859421 1.038730 8.195221 106.855484 -31.239275 -9.461397 104.187431
[L_mid_hand02]
30 105.572853 -4.139662 -10.864139 -142.331345 25.752670 -28.774628 106.211075
31 105.572853 -4.139662 -10.864139 -142.331345 25.752670 -28.774628 106.211075
[L_mid_hand03]
30 104.641464 17.579376 -3.913581 -16.122810 9.734291 34.223598 106.179977
31 104.641464 17.579376 -3.913581 -16.122810 9.734291 34.223598 106.179977
[null_rope02_connect]
30 328.732849 0.000179 -0.000119 -140.208786 68.099197 -35.150627 328.732849
31 328.732849 0.000179 -0.000119 -140.208801 68.099243 -35.150642 328.732849
[Rope2_Seg01]
30 0.000095 0.000153 0.000074 63.447460 4.776383 -54.747429 0.000194
31 0.000095 0.000153 0.000076 60.307552 3.774088 -54.165943 0.000195
[Rope2_Seg02]
30 139.999741 -0.000060 -0.000119 21.278418 -2.717121 -6.748496 139.999756
31 139.999741 -0.000060 -0.000119 25.423836 -3.774811 -8.423892 139.999756
[Rope2_Seg03]
30 140.000107 0.000030 0.000000 13.893771 -3.148223 -4.350157 140.000107
31 140.000107 0.000030 0.000000 14.844479 -6.011031 -4.678349 140.000107
[Rope2_Seg04]
30 139.999802 0.000000 -0.000060 1.564015 -1.695571 0.047756 139.999802
31 139.999802 0.000000 -0.000060 2.127257 -0.476528 -0.887685 139.999802
[Rope2_Seg05]
30 139.999985 -0.000060 0.000119 -3.148312 0.085494 1.429181 139.999985
31 139.999985 -0.000060 0.000119 -2.437945 2.074431 0.229634 139.999985
[Rope2_Seg06]
30 139.999893 -0.000030 -0.000119 -0.770470 -0.163678 0.418205 139.999893
31 139.999893 -0.000030 -0.000119 -0.473195 0.471445 -0.015122 139.999893
[Rope2_Seg07]
30 139.999893 0.000060 -0.000060 -0.329946 -0.141189 0.199894 139.999893
31 139.999893 0.000060 -0.000060 -0.196236 0.224158 -0.033346 139.999893
[Rope2_Seg09]
30 121.338966 0.000089 -0.000060 33.793236 -1.359788 -0.847141 121.338966
31 121.338966 0.000089 -0.000060 33.793236 -1.359788 -0.847141 121.338966
[R_mid_hand01]
30 104.680779 11.144459 -10.335981 -41.523792 25.424656 28.595957 105.778534
31 104.680779 11.144459 -10.335981 -41.523792 25.424656 28.595957 105.778534
[R_mid_hand02]
30 104.070427 2.443552 8.231699 72.847389 -32.746803 10.013901 104.424065
31 104.070427 2.443552 8.231699 72.847389 -32.746803 10.013901 104.424065
[R_mid_hand03]
30 106.028137 -11.221827 -5.996406 -167.901306 10.259192 -37.009720 106.788818
31 106.028137 -11.221827 -5.996406 -167.901306 10.259192 -37.009720 106.788818
[spine02]
30 129.756927 0.001550 0.000119 0.360061 -4.044797 -12.915058 129.756927
31 129.756927 0.001550 0.000119 0.360061 -4.044798 -12.915060 129.756927
[spine03]
30 78.613846 0.087372 -4.898873 1.896495 3.831288 16.473045 78.766380
31 78.613846 0.087372 -4.898873 1.896495 3.831288 16.473051 78.766380
[pelvis]
30 169.435242 0.051022 0.000000 -0.060465 -0.180225 14.087930 169.435257
31 169.435242 0.051022 0.000000 -0.060465 -0.180225 14.087932 169.435257
[null_rope03_connect]
30 -1.257226 -2.466202 137.391083 156.329987 -89.381348 -94.430771 137.418976
31 -1.257226 -2.466202 137.391083 156.330505 -89.382614 -94.432030 137.418976
[null_rope04_connect]
30 -1.259640 -2.480268 -137.844437 156.329987 -89.381348 -94.430771 137.872513
31 -1.259640 -2.480268 -137.844437 156.330505 -89.382614 -94.432030 137.872513
[Rope3_Seg01]
30 0.000010 0.000038 -0.000114 -131.185822 20.056229 -76.533569 0.000121
31 0.000010 0.000038 -0.000114 -130.113998 20.723835 -73.236732 0.000121
[Rope3_Seg02]
30 139.999924 -0.000119 0.000060 0.008447 1.882501 4.929893 139.999924
31 139.999924 -0.000119 0.000060 0.223082 3.408044 5.274700 139.999924
[Rope3_Seg03]
30 139.999924 -0.000119 0.000119 0.090673 2.948629 5.378766 139.999924
31 139.999924 -0.000119 0.000119 0.433921 4.591242 5.832491 139.999924
[Rope3_Seg04]
30 139.999924 0.000119 0.000000 0.514696 5.170031 6.851110 139.999924
31 139.999924 0.000119 0.000000 1.358451 7.590793 7.562178 139.999924
[Rope3_Seg05]
30 139.999924 -0.000238 0.000060 -1.376729 -6.538977 -2.238355 139.999924
31 139.999924 -0.000238 0.000060 -1.911702 -6.804822 -1.237444 139.999924
[Rope3_Seg06]
30 139.999893 -0.000119 -0.000060 -0.228469 -9.215192 -5.708130 139.999893
31 139.999893 -0.000119 -0.000060 -0.800895 -10.043669 -4.775108 139.999893
[Rope3_Seg07]
30 139.999771 0.000060 -0.000119 0.324582 -3.886116 -2.077955 139.999771
31 139.999771 0.000060 -0.000119 0.158484 -3.914306 -1.547760 139.999771
[Rope3_Seg08]
30 139.999985 -0.000060 0.000000 0.474457 -2.254034 -1.150372 139.999985
31 139.999985 -0.000060 0.000000 0.384668 -2.265756 -0.856785 139.999985
[Rope3_Seg09]
30 90.185997 -0.000179 -0.000060 89.793228 -1.359877 -0.847183 90.185997
31 90.185997 -0.000179 -0.000060 89.793228 -1.359877 -0.847183 90.185997
[R_rear_hand01]
30 103.366196 -6.073594 -10.757982 -161.551193 16.666374 -30.088671 104.101845
31 103.366196 -6.073594 -10.757982 -161.551193 16.666374 -30.088671 104.101845
[R_rear_hand02]
30 100.509819 12.039542 -7.992327 -34.280552 19.289745 28.875523 101.543350
31 100.509819 12.039542 -7.992327 -34.280552 19.289745 28.875523 101.543350
[R_rear_hand03]
30 101.539970 5.215704 5.435467 83.366440 -30.933914 7.284830 101.819031
31 101.539970 5.215704 5.435467 83.366440 -30.933914 7.284830 101.819031
[Rope4_Seg01]
30 0.000010 0.000038 -0.000114 52.810452 28.266834 -92.332222 0.000121
31 0.000010 0.000038 -0.000114 53.778770 27.197386 -89.234657 0.000121
[Rope4_Seg02]
30 139.999985 0.000060 0.000119 0.301917 -5.686799 -3.351333 139.999985
31 139.999985 0.000060 0.000119 0.662541 -6.329852 -4.776654 139.999985
[Rope4_Seg03]
30 139.999924 0.000000 -0.000238 0.298711 -6.221705 -3.640786 139.999924
31 139.999924 0.000000 -0.000238 0.508545 -6.673048 -4.948953 139.999924
[Rope4_Seg04]
30 139.999985 0.000000 0.000119 0.600213 -10.759639 -5.770017 139.999985
31 139.999985 0.000000 0.000119 0.597788 -10.202492 -6.947862 139.999985
[Rope4_Seg05]
30 139.999802 -0.000060 -0.000119 0.055066 -3.896045 -2.588527 139.999802
31 139.999802 -0.000060 -0.000119 -0.037384 -4.002918 -3.273522 139.999802
[Rope4_Seg06]
30 139.999924 0.000000 0.000060 0.099783 7.405221 2.664783 139.999924
31 139.999924 0.000000 0.000060 0.105981 5.007195 2.045974 139.999924
[Rope4_Seg07]
30 139.999802 0.000000 0.000000 0.197455 5.822596 2.096647 139.999802
31 139.999802 0.000000 0.000000 0.181542 4.644486 1.993976 139.999802
[Rope4_Seg08]
30 139.999924 0.000000 0.000119 -1.424255 2.643323 0.809861 139.999924
31 139.999924 0.000000 0.000119 -1.458298 1.834145 0.571924 139.999924
[Rope4_Seg09]
30 90.185791 0.000060 0.000060 -135.617828 2.228885 0.850567 90.185791
31 90.185791 0.000060 0.000060 -135.617828 2.228885 0.850567 90.185791
[L_rear_hand01]
30 101.696655 -8.392275 -7.654577 -34.454281 -18.946800 151.655121 102.329041
31 101.696655 -8.392275 -7.654577 -34.454281 -18.946800 151.655121 102.329041
[L_rear_hand02]
30 102.726799 -1.568258 5.773216 83.407906 30.330435 172.796509 102.900848
31 102.726799 -1.568258 5.773216 83.407906 30.330435 172.796509 102.900848
[L_rear_hand03]
30 104.552910 9.721220 -10.420293 -161.379868 -16.473232 -150.512238 105.519653
31 104.552910 9.721220 -10.420293 -161.379868 -16.473232 -150.512238 105.519653
